<?xml version="1.0" encoding="utf-8"?>
<!-- Generator: Adobe Illustrator 16.0.3, SVG Export Plug-In . SVG Version: 6.00 Build 0)  -->
<!DOCTYPE svg PUBLIC "-//W3C//DTD SVG 1.1//EN" "http://www.w3.org/Graphics/SVG/1.1/DTD/svg11.dtd">
<svg version="1.1" id="Layer_1" xmlns="http://www.w3.org/2000/svg" xmlns:xlink="http://www.w3.org/1999/xlink" x="0px" y="0px"
	 width="215.2px" height="170.4px" viewBox="0 0 215.2 170.4" enable-background="new 0 0 215.2 170.4" xml:space="preserve">
<g>
	<path fill="#333333" d="M89.836,78.283h35.907l3.862,7.891c1.226-4.098,1.717-8.143,1.45-12.133
		c-0.371-5.549-2.088-10.789-5.152-15.722c-4.512-7.264-10.666-12.017-18.459-14.259c-7.794-2.242-16.967-2.105-27.521,0.412
		l-9.742,2.322c-3.365,0.786-6.25,1.32-8.652,1.602c-2.404,0.28-4.449,0.34-6.137,0.176c-1.686-0.164-3.05-0.559-4.092-1.187
		c-1.041-0.626-1.869-1.433-2.482-2.42c-0.695-1.119-1.119-2.427-1.27-3.919c-0.15-1.49,0.039-3.037,0.567-4.64
		c0.527-1.601,1.425-3.183,2.69-4.747c1.266-1.562,2.975-3.013,5.127-4.351c1.255-0.779,2.715-1.53,4.379-2.254
		c1.664-0.722,3.431-1.354,5.301-1.896c1.869-0.54,3.811-0.969,5.82-1.285c2.008-0.315,4.01-0.471,6.002-0.467L76.552,3.782
		c-2.531,0.33-5.383,0.842-8.553,1.538c-3.172,0.698-6.539,1.655-10.102,2.872c-3.562,1.22-7.253,2.705-11.072,4.456
		c-3.822,1.753-7.66,3.827-11.516,6.222c-7.803,4.847-14.021,10.015-18.658,15.505c-4.637,5.491-7.879,11-9.727,16.529
		C5.076,56.433,4.5,61.857,5.194,67.173c0.693,5.318,2.433,10.22,5.218,14.702c4.317,6.951,10.218,11.598,17.7,13.938
		c7.482,2.343,16.448,2.319,26.896-0.069l14.588-3.376c2.832-0.642,5.235-1,7.208-1.076c1.973-0.075,3.631,0.044,4.977,0.358
		c1.344,0.314,2.427,0.808,3.248,1.478c0.82,0.672,1.481,1.41,1.982,2.218c1.588,2.556,1.641,5.317,0.162,8.287
		c-1.48,2.971-4.798,6.058-9.953,9.261c-4.484,2.786-9.703,5.188-15.656,7.209c-5.954,2.021-12.059,3.296-18.315,3.827l0.446,18.272
		c4.627-0.451,9.117-1.127,13.467-2.028c4.35-0.898,8.617-2.059,12.801-3.478c4.184-1.418,8.324-3.106,12.422-5.062
		c0.992-0.473,1.984-0.966,2.977-1.474l14.616-29.768L89.836,78.283z"/>
	<path fill="#333333" d="M104.736,118.004c0.841-0.635,1.663-1.272,2.462-1.914l-0.795-1.725L104.736,118.004z"/>
	<path fill="#333333" d="M129.605,86.174c-0.479,1.601-1.058,3.208-1.765,4.824c-2.514,5.757-6.51,11.502-11.988,17.236
		c-2.543,2.661-5.438,5.279-8.654,7.856l10.29,22.331h-22.11l9.358-20.417c-3.067,2.318-6.395,4.604-10.016,6.854
		c-3.129,1.942-6.247,3.709-9.359,5.303l-17.576,35.795h14.917l6.427-14.032h34.55l6.485,14.032h38.5L129.605,86.174z"/>
</g>
<text transform="matrix(1 0 0 1 136.9263 165.9558)" fill="#FAFAFA" font-family="'Chalkboard'" font-size="14">NON</text>
<text transform="matrix(1 0 0 1 165.4673 165.9558)" fill="#333333" font-family="'Chalkboard'" font-size="14">Y</text>
<text transform="matrix(1 0 0 1 173.6821 165.9558)" fill="#333333" font-family="'Chalkboard'" font-size="14">MOUS</text>
<text transform="matrix(1 0 0 1 89.665 77.7996)" fill="#FAFAFA" font-family="'Chalkboard'" font-size="12">CRUBS</text>
</svg>
